<svg id="Layer_1" data-name="Layer 1" xmlns="http://www.w3.org/2000/svg" xmlns:xlink="http://www.w3.org/1999/xlink" viewBox="0 0 800 800"><defs><style>.cls-1{fill:url(#Blue_2);}.cls-2{fill:url(#Blue_2_copy);}.cls-3{fill:#e4e6e6;}.cls-4{fill:#344e5c;}.cls-5{opacity:0.1;}.cls-6{fill:#1b75bc;}</style><linearGradient id="Blue_2" x1="167.83" y1="408.28" x2="617.45" y2="408.28" gradientUnits="userSpaceOnUse"><stop offset="0" stop-color="#2bc4f3"/><stop offset="0.5" stop-color="#00aeee"/><stop offset="1" stop-color="#0095da"/></linearGradient><linearGradient id="Blue_2_copy" x1="167.83" y1="413.08" x2="407.63" y2="413.08" xlink:href="#Blue_2"/></defs><title>ghostpeek</title><path class="cls-1" d="M382.15,173.28c-121.4,6-214.32,109.41-214.32,230.8V518h0V630.39c0,10.49,19.1,16.81,28.09,10.81l25.87-21.3c12.4-9.12,30-7.49,43.46,0l31.47,18a44.8,44.8,0,0,0,43.47,0l31.47-18a44.84,44.84,0,0,1,43.46,0l31.48,18a44.79,44.79,0,0,0,43.46,0l31.47-18a44.84,44.84,0,0,1,43.46,0l33,19.48c9,4.5,19.48-1.5,19.48-10.49V516.49h0V396.59C617.45,270.7,511,167.29,382.15,173.28Z"/><path class="cls-2" d="M197.81,398.09c0-118.4,92.92-215.82,209.82-224.81h-15A224.51,224.51,0,0,0,167.83,398.09V652.87c13.49,0,22.48-6,30-13.49Z"/><path class="cls-3" d="M475.07,368.11c-28.47,0-52.45,24-52.45,52.46S446.6,473,475.07,473s52.46-24,52.46-52.45S503.55,368.11,475.07,368.11Zm-164.86,0c-28.47,0-52.45,24-52.45,52.46s24,52.45,52.45,52.45,52.46-24,52.46-52.45S338.69,368.11,310.21,368.11Z"/><path class="cls-4" d="M495.07,418.09c-12,0-22.48,10.49-22.48,22.48s10.49,22.48,22.48,22.48,22.48-10.49,22.48-22.48S507.06,418.09,495.07,418.09Zm-164.86,0c-12,0-22.48,10.49-22.48,22.48s10.49,22.48,22.48,22.48,22.48-10.49,22.48-22.48S342.2,418.09,330.21,418.09Z"/><g class="cls-5"><path class="cls-6" d="M197.81,396.68c0-118.4,92.92-215.81,209.82-224.8h-15a224.51,224.51,0,0,0-224.81,224.8V651.47c13.49,0,22.48-6,30-13.49Z"/></g></svg>